<?xml version="1.0" standalone="no"?>
<!DOCTYPE svg PUBLIC "-//W3C//DTD SVG 20010904//EN"
 "http://www.w3.org/TR/2001/REC-SVG-20010904/DTD/svg10.dtd">
<svg version="1.0" xmlns="http://www.w3.org/2000/svg"
 width="1264.000000pt" height="641.000000pt" viewBox="0 0 1264.000000 641.000000"
 preserveAspectRatio="xMidYMid meet">

<g transform="translate(0.000000,641.000000) scale(0.100000,-0.100000)"
fill="#000000" stroke="none">
<path d="M5985 5591 c-20 -6 -5 -7 45 -4 50 3 90 0 120 -10 l45 -15 -106 -1
c-69 -1 -132 -8 -182 -20 -97 -25 -179 -60 -170 -74 3 -6 1 -7 -5 -3 -6 3 -21
-4 -34 -16 -13 -13 -49 -46 -79 -75 -30 -28 -60 -57 -67 -65 -77 -77 -113
-108 -121 -104 -5 3 -11 -1 -15 -9 -6 -17 9 -21 19 -5 5 8 11 7 21 -1 8 -6 23
-9 34 -6 11 3 20 1 20 -4 0 -5 -28 -63 -61 -129 -44 -87 -66 -120 -79 -120
-13 0 -20 9 -22 28 l-3 27 -18 -30 -17 -30 6 50 c3 28 12 69 20 93 8 23 14 63
14 89 0 36 6 53 31 82 16 20 45 56 62 81 18 25 62 65 101 90 l69 45 -39 7
c-34 5 -41 3 -58 -18 -21 -28 -57 -49 -101 -57 -16 -3 -39 -9 -49 -13 -14 -5
-17 -4 -12 5 5 7 -14 -9 -42 -36 -55 -53 -92 -117 -92 -160 0 -39 -35 -94 -55
-87 -12 5 -15 -3 -16 -37 -2 -121 -10 -214 -18 -222 -9 -9 -15 6 -40 103 l-9
35 -1 -30 c0 -16 6 -59 14 -94 9 -35 13 -73 9 -84 -4 -13 -2 -17 5 -13 12 8
15 -70 5 -123 -6 -31 -7 -31 -26 -14 -19 17 -19 17 -13 -9 4 -15 0 -61 -9
-103 -18 -89 -19 -98 -7 -91 4 3 11 28 15 56 4 27 12 50 17 50 7 0 9 -14 5
-37 -3 -21 -9 -109 -12 -196 -4 -87 -10 -160 -15 -162 -4 -3 -12 23 -18 57 -9
56 -9 49 -5 -57 3 -80 0 -156 -11 -227 -8 -59 -18 -153 -22 -209 -6 -93 -5
-102 10 -96 10 4 17 3 17 -1 0 -11 -38 -153 -42 -157 -2 -2 -11 2 -20 9 -15
11 -15 18 -3 77 17 79 39 294 32 311 -3 7 -6 -1 -6 -19 -1 -40 -58 -381 -66
-393 -4 -6 -15 -5 -28 3 -12 6 -23 12 -24 13 -2 0 6 72 17 160 21 167 24 220
9 144 -11 -53 -41 -287 -41 -312 1 -18 -56 -68 -76 -68 -15 0 -160 159 -174
192 -14 31 -76 56 -308 128 -74 24 -166 59 -205 79 -87 45 -96 48 -65 22 35
-30 140 -87 172 -95 16 -4 34 -18 42 -34 20 -39 165 -167 210 -186 49 -21 57
-20 26 1 -57 39 -171 137 -195 169 l-25 33 27 -9 c16 -5 87 -27 158 -49 127
-39 131 -41 166 -88 20 -26 64 -78 98 -115 l61 -66 -72 -46 c-39 -25 -77 -46
-83 -46 -6 0 -35 11 -64 25 -29 14 -80 36 -114 49 -34 13 -86 33 -115 45 -29
12 -51 17 -47 11 8 -13 85 -48 206 -94 90 -34 98 -40 130 -87 30 -45 88 -90
195 -155 13 -7 15 -17 10 -37 -6 -24 -10 -26 -34 -21 -15 3 -34 8 -42 11 -8 3
-24 7 -35 8 -104 10 -117 16 -148 66 -16 27 -32 47 -35 45 -2 -3 5 -18 17 -34
29 -42 27 -52 -11 -47 -63 10 -12 -4 142 -39 153 -34 264 -69 275 -86 3 -5 -3
-27 -14 -48 -11 -21 -23 -56 -26 -77 -11 -61 -21 -73 -63 -78 l-37 -4 38 -1
37 -2 0 -104 c0 -102 27 -335 54 -471 l14 -70 1 55 c1 53 -16 202 -40 355 -14
93 -14 253 0 288 13 34 37 31 33 -4 -5 -42 -3 -363 2 -384 18 -73 117 -417
122 -424 2 -1 7 0 13 3 7 5 7 13 1 24 -9 16 -75 319 -100 457 -6 33 -13 106
-17 163 -6 100 -6 102 15 102 22 0 22 -3 22 -153 0 -101 5 -171 14 -207 8 -30
53 -137 100 -238 47 -101 86 -185 86 -187 0 -2 -8 -2 -17 2 -15 5 -14 2 3 -18
12 -13 39 -57 60 -98 22 -40 55 -90 74 -110 19 -21 28 -28 19 -17 -22 29 -74
126 -55 102 16 -19 17 -19 73 -2 32 10 67 23 78 30 63 39 77 25 75 -71 -3
-118 -9 -125 -82 -99 -20 7 -42 10 -48 6 -8 -5 8 -14 38 -24 53 -18 62 -29 62
-76 0 -18 13 -44 36 -71 19 -23 42 -55 50 -71 13 -26 13 -28 -4 -28 -28 0 -82
-20 -82 -31 0 -5 12 -4 26 1 47 18 88 11 143 -25 30 -20 56 -34 58 -32 2 3 -2
17 -9 32 -9 20 -13 23 -18 12 -7 -22 -23 -8 -100 88 -89 111 -84 104 -61 98
12 -3 19 -9 16 -13 -3 -4 3 -14 12 -21 12 -10 14 -10 9 -1 -5 8 -1 12 11 12
14 0 15 2 4 9 -8 5 -12 18 -8 30 3 12 1 19 -4 15 -5 -3 -9 3 -9 13 -1 17 -2
16 -16 -2 -16 -20 -16 -20 -10 1 4 12 10 42 14 65 l8 44 13 -40 c7 -22 30 -72
51 -111 21 -38 41 -87 45 -107 11 -58 27 -56 19 2 -7 56 14 241 28 241 5 0 4
9 -2 19 -5 11 -10 25 -10 31 0 14 193 -85 295 -152 68 -45 85 -62 112 -113 18
-33 33 -68 33 -77 0 -10 10 -18 23 -20 18 -2 23 -11 28 -45 8 -63 18 -63 15
-1 -3 62 -11 79 -30 72 -14 -5 -33 13 -23 22 2 3 69 -27 148 -65 79 -39 158
-73 174 -76 17 -4 -53 36 -154 87 -160 80 -188 98 -204 128 -28 52 -44 65
-154 128 -133 75 -186 137 -241 277 -45 112 -107 323 -99 332 3 3 22 -20 41
-50 122 -191 273 -325 482 -431 90 -45 130 -63 334 -156 63 -28 121 -58 128
-64 11 -11 9 -23 -13 -67 -14 -30 -28 -77 -31 -106 -6 -57 8 -74 56 -67 96 16
122 42 125 127 1 35 5 68 9 75 4 7 28 12 54 12 45 0 112 29 112 48 0 10 61 38
103 47 43 9 32 41 -13 38 -19 -1 -50 -2 -68 -3 -40 -2 -88 16 -96 37 -9 22 77
56 156 61 52 3 76 0 110 -16 100 -48 308 -132 377 -153 54 -16 86 -33 117 -61
l43 -40 96 6 c53 3 101 8 106 12 28 17 0 77 -74 159 -25 27 -56 69 -69 94 -13
24 -54 77 -93 117 -38 40 -86 91 -106 113 -24 27 -45 41 -61 41 -31 0 -88 -19
-88 -30 0 -4 20 -32 44 -61 53 -65 116 -177 116 -207 0 -61 -106 -43 -225 38
-90 61 -123 73 -194 66 -186 -16 -251 -18 -282 -7 -26 9 -37 8 -56 -4 -22 -15
-25 -14 -65 23 -99 90 -255 205 -433 320 -176 113 -297 204 -250 187 11 -4 81
-29 155 -55 234 -83 353 -137 486 -221 34 -22 66 -39 71 -39 16 0 46 -38 40
-52 -7 -19 14 -33 47 -33 21 1 31 7 37 23 5 12 13 22 19 22 19 0 10 18 -34 70
-24 29 -50 72 -57 96 -10 32 -19 44 -32 44 -17 0 -17 -1 2 -26 22 -28 28 -54
12 -54 -17 0 -31 28 -24 46 6 17 5 18 -11 4 -16 -13 -20 -12 -36 8 -10 12 -23
22 -29 22 -6 0 -59 25 -117 56 -58 30 -115 56 -127 58 -12 1 -39 10 -60 19
-21 9 -57 22 -80 28 -23 6 -55 16 -72 23 -16 7 -57 21 -90 31 -51 16 -116 45
-185 83 -8 5 -42 22 -75 38 -65 32 -145 100 -149 128 -1 10 -8 21 -16 26 -7 4
-10 15 -7 23 4 10 -9 32 -32 59 -21 24 -50 66 -64 93 -21 43 -24 58 -18 109 6
57 7 60 42 71 19 7 51 27 69 44 19 17 40 31 47 31 7 0 16 12 19 28 4 15 10 32
14 37 4 6 13 33 20 60 7 28 17 55 22 62 11 14 7 238 -4 249 -14 13 -21 -5 -9
-20 17 -21 4 -39 -24 -33 -18 3 -25 -1 -29 -20 -8 -28 -20 -29 -39 -2 -13 18
-18 19 -37 7 -18 -11 -23 -11 -36 6 -12 17 -14 17 -14 3 0 -9 9 -21 20 -27 11
-6 20 -15 20 -21 0 -6 -8 -5 -21 2 -17 8 -23 8 -29 -1 -10 -16 -22 20 -20 58
1 15 1 36 0 47 -4 29 -18 -79 -20 -155 l-2 -65 -14 75 c-7 41 -18 86 -23 100
-5 14 -12 46 -16 71 -6 45 -6 46 -45 47 -29 1 -40 -2 -43 -16 -4 -16 -5 -16
-6 1 -1 14 -11 17 -53 17 -62 0 -97 15 -57 24 13 3 64 7 114 9 l90 2 3 50 c2
29 10 53 18 58 8 5 14 24 14 50 0 49 13 78 24 52 3 -9 6 -26 6 -38 0 -18 6
-22 35 -23 34 0 35 1 35 37 0 67 42 60 55 -9 6 -30 8 -33 16 -19 6 9 22 17 36
17 22 0 25 -4 21 -25 -3 -14 -1 -25 3 -25 14 0 11 42 -4 59 -16 20 -41 117
-33 130 4 5 34 -7 69 -29 130 -78 330 -171 450 -207 27 -8 51 -13 53 -10 2 2
-22 11 -54 21 -82 26 -245 97 -332 145 -41 23 -91 50 -110 59 l-35 16 65 6
c60 6 180 53 167 66 -3 3 -23 -4 -46 -15 -68 -35 -120 -25 -184 37 -33 32 -77
98 -77 117 0 3 12 -1 28 -8 15 -8 65 -19 111 -25 75 -11 88 -10 125 7 22 10
52 31 66 46 23 26 21 26 -17 -5 -85 -66 -193 -47 -261 46 -39 52 -62 113 -62
161 0 42 19 121 32 129 5 3 25 -4 44 -15 44 -27 49 -26 30 1 -22 31 -21 34 27
53 75 31 73 30 61 14 -19 -24 -24 -62 -12 -101 14 -49 48 -63 132 -53 55 5 65
9 69 28 2 12 8 31 12 42 5 12 -6 5 -27 -17 -32 -34 -41 -38 -85 -38 -39 0 -54
5 -70 23 -38 43 -12 106 46 107 22 0 23 -1 7 -25 -23 -35 -20 -45 14 -45 38 0
47 20 25 54 -17 25 -16 26 2 26 30 0 73 -24 68 -37 -2 -7 1 -13 9 -13 21 0 25
10 15 43 -5 17 -7 32 -5 34 2 2 30 -5 62 -16 32 -12 60 -19 62 -16 3 3 0 5 -6
5 -7 0 -12 7 -12 15 0 8 -5 15 -11 15 -5 0 -7 5 -3 11 4 7 1 10 -7 7 -8 -3
-23 -1 -34 5 -19 10 -19 10 0 17 14 6 8 8 -20 8 -22 0 -75 1 -118 3 -59 2 -81
-1 -87 -11 -5 -8 -12 -11 -15 -8 -11 11 31 49 47 43 8 -3 21 2 29 11 13 16 12
16 -8 5 -31 -16 -29 -7 9 40 25 31 38 39 64 39 31 0 151 -21 204 -36 22 -7 23
-6 12 8 -14 17 -114 46 -172 50 -40 3 -41 9 -14 78 14 35 18 77 18 182 1 76 4
138 8 138 10 0 65 -118 73 -157 10 -48 -3 -89 -38 -131 -28 -32 -29 -35 -7
-21 71 46 88 141 46 253 -14 37 -26 72 -26 76 0 12 41 23 76 21 18 -1 35 2 38
7 3 6 15 8 26 5 12 -3 22 1 26 11 9 23 27 20 19 -4 -7 -23 10 -26 48 -9 19 9
30 8 48 -4 13 -8 38 -18 54 -21 63 -15 75 -31 75 -97 0 -94 -43 -169 -119
-209 -41 -22 -26 -27 22 -7 45 19 104 88 118 139 7 24 16 47 20 52 11 13 39
-49 39 -87 0 -49 -54 -151 -93 -176 -18 -11 -26 -21 -18 -21 29 0 91 79 108
140 10 33 21 60 25 60 3 0 21 -18 39 -41 31 -40 32 -41 20 -94 l-12 -53 -66
-16 c-70 -18 -137 -48 -149 -68 -5 -8 -2 -9 12 -4 70 27 167 56 172 51 11 -11
-14 -39 -54 -62 -21 -13 -34 -23 -27 -23 27 0 70 23 104 56 25 25 44 35 60 32
21 -3 24 -9 27 -51 4 -57 -9 -77 -50 -77 -25 0 -28 3 -23 20 7 22 -10 28 -18
6 -5 -12 -59 -30 -83 -27 -13 1 -109 -98 -101 -105 2 -3 16 1 31 7 35 16 60
-3 27 -21 -25 -13 -19 -30 10 -30 18 0 23 10 19 39 -2 16 18 31 43 31 11 0 17
-8 17 -21 0 -12 5 -19 13 -16 6 2 12 18 12 35 0 36 11 39 64 21 35 -13 34 -10
21 -43 -6 -17 -6 -26 0 -26 22 0 3 -257 -20 -286 -6 -6 -7 -14 -4 -17 15 -15
-56 -181 -123 -286 -36 -56 -37 -79 -2 -88 15 -4 19 -11 15 -27 -3 -11 -6 -25
-6 -29 0 -5 -4 -5 -10 -2 -5 3 -10 1 -10 -5 0 -7 8 -9 22 -5 17 6 20 4 14 -10
-4 -11 0 -25 11 -37 14 -15 15 -21 4 -27 -10 -6 -10 -10 -2 -16 9 -5 9 -10 0
-21 -7 -9 -8 -18 -3 -23 33 -29 184 -138 257 -185 63 -41 87 -62 87 -77 0 -21
0 -21 -37 2 -73 44 -167 114 -223 166 -87 80 -88 63 -1 -22 42 -42 68 -73 59
-69 -10 3 -18 1 -18 -5 0 -19 -46 -12 -65 9 -10 11 -23 20 -30 20 -15 0 -71
-51 -67 -62 5 -17 -7 -7 -43 37 -20 25 -40 58 -45 74 -7 26 -6 28 13 23 12 -3
29 -15 38 -26 15 -19 19 -19 43 -7 26 14 35 31 16 31 -5 0 -13 -8 -19 -17 -8
-16 -11 -15 -21 9 -7 15 -18 24 -25 21 -15 -5 -35 26 -28 44 2 6 -6 17 -18 24
-22 11 -22 12 -4 25 17 13 17 15 1 49 l-17 36 -32 -27 c-28 -24 -37 -26 -92
-21 -38 4 -51 3 -35 -3 14 -4 39 -8 57 -9 17 -1 34 -4 36 -8 3 -5 10 -60 17
-123 13 -135 38 -264 51 -268 9 -4 38 -64 43 -87 1 -5 10 -20 21 -33 11 -12
20 -28 20 -35 0 -7 7 -12 15 -12 8 0 38 -8 65 -17 43 -15 111 -25 288 -42 27
-3 40 0 44 10 3 8 15 14 27 14 12 0 27 5 34 12 15 15 53 -17 45 -38 -3 -8 0
-14 6 -14 6 0 11 -9 11 -20 0 -28 30 -112 46 -131 19 -21 18 -40 -1 -33 -11 5
-13 2 -9 -10 4 -11 13 -15 25 -11 14 5 19 1 19 -14 0 -11 5 -23 10 -26 6 -3
10 -15 10 -26 0 -10 5 -19 10 -19 6 0 10 -8 10 -17 0 -10 12 -29 25 -42 14
-13 25 -27 25 -32 0 -5 12 -28 27 -52 15 -23 47 -76 71 -117 l44 -75 -7 54
c-5 39 -4 56 6 61 10 7 9 13 -4 32 -9 12 -29 41 -45 63 -45 65 -45 66 9 30 28
-19 55 -35 60 -35 12 0 11 17 -2 25 -6 5 -2 13 11 22 16 11 19 18 10 23 -10 6
-9 18 3 56 8 27 15 61 16 76 1 26 -1 27 -25 16 -24 -11 -29 -9 -51 17 -78 96
-117 136 -159 164 l-47 31 34 0 c19 0 41 5 49 10 12 8 9 10 -12 10 -15 0 -30
5 -33 10 -4 6 7 10 27 10 34 0 138 -44 190 -81 16 -12 31 -19 34 -16 8 7 -77
64 -138 92 -37 17 -71 25 -110 25 -31 0 -59 3 -61 8 -7 10 102 124 191 200 73
62 138 102 167 102 23 0 107 -90 139 -150 18 -33 30 -74 35 -121 11 -103 5
-127 -33 -138 -23 -7 -10 -8 46 -4 96 7 119 -6 155 -83 25 -56 35 -68 26 -34
-5 18 0 20 35 20 26 0 42 5 46 15 4 12 28 15 124 15 117 0 120 -1 161 -30 23
-17 64 -65 91 -107 52 -79 65 -121 33 -108 -78 31 -276 105 -289 107 -11 2
-18 -4 -19 -19 -1 -19 12 -26 104 -58 172 -59 176 -61 183 -86 4 -13 12 -43
19 -67 8 -28 23 -50 43 -64 64 -44 89 -76 141 -178 29 -58 56 -116 60 -130 4
-14 21 -57 37 -97 26 -64 34 -73 73 -92 50 -23 48 -21 65 -159 11 -94 24 -138
76 -247 l29 -60 3 41 c2 28 11 49 28 64 27 26 29 21 13 -47 -9 -38 -8 -60 4
-108 21 -85 59 -219 63 -224 2 -2 23 2 46 9 62 18 212 48 218 43 2 -2 -2 -8
-10 -13 -23 -15 -7 -12 36 6 22 9 64 38 94 63 64 55 144 111 159 111 5 0 11
10 13 23 2 14 11 23 25 25 14 2 22 10 21 20 -6 81 46 122 116 91 13 -6 22 -17
20 -24 -3 -7 5 -15 18 -18 13 -2 105 -34 206 -70 130 -46 207 -81 270 -119
104 -65 118 -70 140 -59 66 36 135 48 212 37 166 -23 284 16 191 63 -65 34
-89 144 -44 206 12 17 29 63 39 103 l17 73 -31 92 c-38 114 -59 238 -74 429
-9 114 -9 151 0 160 6 6 14 9 18 6 3 -3 9 -59 14 -125 14 -189 45 -376 70
-413 13 -20 13 3 0 167 -5 70 -12 158 -15 195 -4 55 -2 66 9 62 22 -8 26 39
28 325 l3 263 40 35 c22 19 30 30 17 23 -47 -23 -56 16 -17 70 28 38 32 48 11
31 -12 -10 -15 -5 -19 26 -3 21 -6 45 -6 53 0 8 -3 35 -6 60 -6 44 10 130 25
130 4 0 10 11 12 25 3 14 1 25 -4 25 -5 0 -6 5 -2 12 4 6 -1 17 -10 24 -16 11
-18 40 -22 261 -2 136 -6 260 -9 275 -2 15 1 28 8 31 7 2 -11 3 -40 1 l-51 -2
-11 43 c-9 35 -8 58 5 111 10 45 12 75 6 93 -5 14 -7 42 -4 62 2 20 -1 47 -8
59 -9 16 -9 25 0 35 36 43 -181 206 -351 264 -282 96 -521 91 -708 -16 -65
-37 -211 -144 -251 -184 l-34 -34 -9 32 c-7 25 -6 35 6 47 9 9 21 42 27 74 6
31 13 63 15 70 3 7 -4 12 -14 12 -12 0 -23 -11 -30 -30 -10 -30 -11 -30 -81
-30 -76 0 -131 -18 -154 -51 -21 -31 -13 -138 15 -202 13 -31 26 -55 29 -54 3
2 31 15 63 30 58 27 73 39 37 30 -11 -3 -20 -3 -20 0 0 5 58 37 67 37 8 0 -48
-99 -71 -128 -15 -16 -26 -35 -26 -40 0 -15 -31 -20 -63 -9 -15 5 -42 7 -59 3
-17 -3 -37 -1 -44 5 -22 18 -42 3 -50 -36 -3 -20 -4 -38 -2 -41 3 -2 23 -2 45
2 32 5 40 10 36 23 -3 14 3 17 33 17 l38 0 -30 -13 c-28 -14 -28 -14 19 -9 26
3 47 5 47 3 0 -1 -16 -32 -35 -69 -19 -37 -41 -89 -49 -115 -24 -81 -57 -146
-97 -192 -35 -39 -109 -159 -109 -176 0 -4 8 3 18 15 17 22 18 21 18 -22 0
-23 3 -54 7 -68 5 -17 3 -31 -8 -45 l-15 -20 -16 20 c-16 20 -16 20 -11 -4 5
-21 1 -20 -36 16 -73 70 -197 164 -197 150 0 -2 37 -33 83 -69 82 -66 147
-128 134 -128 -4 0 -39 16 -77 35 -130 66 -357 138 -625 200 -644 149 -800
198 -1090 340 -91 45 -175 107 -215 158 -16 20 -20 35 -15 57 7 34 31 40 40
10 10 -33 71 -72 120 -78 51 -5 129 13 147 36 10 12 6 11 -22 -3 -46 -24 -93
-21 -144 9 -64 37 -101 97 -100 160 0 49 21 120 52 181 38 72 21 273 -31 367
-11 21 -18 40 -15 43 2 3 31 -12 64 -33 123 -80 197 -194 197 -307 1 -64 -10
-93 -52 -139 -14 -16 -19 -25 -11 -21 61 32 96 114 87 201 -12 119 -124 271
-271 369 -44 29 -89 68 -100 85 -10 18 -31 43 -47 58 -29 25 -40 49 -16 36 7
-4 9 -3 4 2 -5 5 -12 9 -15 9 -13 0 -32 16 -32 27 0 6 7 5 18 -3 16 -13 16
-13 0 7 -10 11 -18 27 -18 35 0 8 -6 21 -12 28 -11 11 -10 13 5 8 11 -4 16 -3
12 3 -3 6 -13 10 -21 10 -8 0 -38 19 -67 43 -87 71 -137 87 -279 91 -99 2
-135 7 -183 26 -64 24 -179 35 -230 21z m298 -58 c4 -3 58 -6 120 -4 105 2
116 0 172 -27 33 -16 67 -37 75 -47 10 -12 -2 -8 -40 12 -76 42 -147 57 -240
50 -59 -5 -82 -3 -96 8 -11 8 -14 15 -8 15 6 0 14 -3 17 -7z m-873 -186 c0
-14 -37 -69 -80 -117 -14 -15 -40 -31 -58 -34 -31 -5 -32 -4 -26 22 18 72 57
119 114 133 41 11 50 10 50 -4z m-94 -240 c-15 -52 -43 -86 -98 -120 -34 -21
-51 -4 -42 44 10 53 21 67 87 116 71 52 78 46 53 -40z m1661 -24 c38 -32 38
-32 12 -33 -15 0 -46 9 -70 20 -24 11 -53 20 -64 19 -19 0 -19 -1 4 -19 13
-11 29 -20 37 -20 18 0 61 -58 79 -109 24 -68 18 -80 -11 -23 -14 29 -31 52
-38 52 -6 0 -36 27 -65 61 -52 58 -53 61 -46 105 l6 45 59 -33 c32 -17 76 -47
97 -65z m-193 10 c20 -58 20 -113 2 -139 -8 -10 -17 -16 -20 -13 -3 3 -9 52
-12 109 -8 113 2 126 30 43z m-1113 -24 c10 -31 8 -42 -15 -87 -14 -28 -30
-53 -36 -57 -18 -11 -46 4 -59 31 -15 35 -32 26 -54 -27 l-17 -44 5 58 c5 41
3 57 -6 57 -15 0 -5 55 17 88 l16 25 16 -26 c21 -35 70 -46 89 -21 7 10 13 27
13 39 0 28 14 42 18 18 1 -10 7 -34 13 -54z m66 -61 c-19 -40 -42 -82 -51 -93
-17 -19 -17 -18 -11 20 4 21 13 51 20 65 17 32 67 91 73 85 3 -2 -11 -37 -31
-77z m137 28 c13 2 15 -3 10 -20 -6 -22 -72 -96 -85 -96 -4 0 3 27 17 60 13
33 24 70 25 82 1 22 1 22 8 -2 5 -15 14 -24 25 -24z m126 -64 c-5 -45 -14 -90
-19 -100 -15 -24 -14 153 0 180 21 38 29 4 19 -80z m873 29 c11 -19 14 -31 7
-31 -7 0 -9 -8 -5 -19 6 -20 -36 -76 -48 -64 -4 3 -7 45 -7 91 0 80 1 84 18
69 9 -9 25 -29 35 -46z m-1073 40 c0 -5 -6 -14 -14 -20 -12 -10 -13 -8 -9 8 5
21 23 30 23 12z m131 -68 c-8 -15 -10 -10 -11 23 0 22 3 44 8 48 11 12 14 -52
3 -71z m763 51 c9 -24 7 -64 -3 -64 -14 0 -41 41 -41 62 0 23 35 24 44 2z
m-626 -83 c-4 -66 -41 -171 -60 -171 -6 0 -8 20 -4 48 3 26 8 81 12 123 6 74
7 76 31 71 24 -5 25 -7 21 -71z m-842 -93 c-24 -53 -42 -76 -52 -65 -10 10 16
91 43 130 27 40 28 41 31 17 2 -14 -8 -51 -22 -82z m1544 -49 c0 -20 -4 -29
-12 -27 -15 5 -22 33 -14 54 9 24 26 6 26 -27z m-830 -1 c0 -19 -18 -43 -25
-36 -4 3 -2 16 5 27 12 24 20 27 20 9z m-24 -90 c-8 -44 -39 -84 -62 -80 -14
3 -16 1 -6 -11 14 -16 6 -27 -19 -27 -31 0 -28 14 13 75 58 84 85 100 74 43z
m-690 -84 c-3 -8 -10 -14 -15 -14 -10 0 -9 9 6 48 6 16 6 16 10 -1 3 -10 2
-25 -1 -33z m579 -44 c3 -6 -1 -13 -10 -16 -19 -8 -30 0 -20 15 8 14 22 14 30
1z m-365 -84 c0 -3 -4 -8 -10 -11 -5 -3 -10 -1 -10 4 0 6 5 11 10 11 6 0 10
-2 10 -4z m1436 -75 c27 -31 30 -40 22 -63 -5 -16 -15 -28 -22 -28 -16 0 -45
72 -52 127 -4 33 -3 36 8 19 7 -11 27 -36 44 -55z m-1416 22 c-11 -17 -11 -17
-6 0 3 10 6 24 7 30 0 9 2 9 5 0 3 -7 0 -20 -6 -30z m-20 23 c0 -3 -4 -8 -10
-11 -5 -3 -10 -1 -10 4 0 6 5 11 10 11 6 0 10 -2 10 -4z m226 -12 c-3 -9 -6
-36 -6 -61 0 -39 -2 -44 -15 -33 -25 21 -12 110 16 110 6 0 8 -7 5 -16z m-513
-9 c-3 -9 -8 -14 -10 -11 -3 3 -2 9 2 15 9 16 15 13 8 -4z m99 -102 c-2 -7 -8
-13 -13 -13 -11 0 -12 35 -2 70 7 24 8 23 13 -10 3 -19 4 -41 2 -47z m1733
-33 c10 -11 16 -20 13 -20 -3 0 -13 9 -23 20 -10 11 -16 20 -13 20 3 0 13 -9
23 -20z m-1657 -93 c4 -31 65 -87 129 -118 48 -23 65 -47 62 -87 -1 -15 3 -38
9 -52 6 -14 11 -19 11 -12 1 20 19 14 26 -9 9 -28 -7 -44 -31 -31 -11 6 -39
17 -64 26 -61 21 -97 57 -131 130 -33 71 -52 192 -28 184 8 -2 15 -16 17 -31z
m1739 -103 c42 -24 79 -44 83 -44 12 0 48 -45 52 -65 2 -14 -3 -21 -18 -23
-28 -4 -114 36 -114 53 0 20 -51 94 -69 100 -9 3 -22 15 -30 27 -13 21 -13 22
3 9 9 -8 51 -33 93 -57z m-1346 39 c13 -16 12 -17 -3 -4 -10 7 -18 15 -18 17
0 8 8 3 21 -13z m-271 -15 c0 -6 -6 -5 -15 2 -8 7 -15 14 -15 16 0 2 7 1 15
-2 8 -4 15 -11 15 -16z m1314 -39 c-5 -8 -10 -6 -16 5 -5 9 -6 21 -2 27 5 8
10 6 16 -5 5 -9 6 -21 2 -27z m255 -76 c2 -1 -2 -11 -10 -20 -13 -17 -12 -17
8 0 20 18 23 17 114 -44 271 -177 498 -254 1129 -379 387 -77 403 -83 528
-175 56 -41 102 -77 102 -81 0 -3 -8 -18 -19 -32 -10 -15 -28 -47 -40 -72
l-22 -45 36 38 c19 20 37 37 40 37 6 0 -26 -89 -35 -95 -4 -3 -50 15 -101 39
-188 89 -332 116 -624 116 l-180 0 -216 124 c-250 143 -259 148 -259 142 0 -4
53 -35 323 -191 65 -37 116 -70 113 -72 -10 -10 -466 257 -466 272 0 4 6 3 13
-1 38 -22 -21 22 -118 86 -85 57 -148 111 -277 241 -93 93 -168 173 -168 178
0 8 94 -40 129 -66z m-104 -23 c16 -17 16 -20 3 -15 -9 4 -19 13 -22 21 -7 19
-2 18 19 -6z m-1069 -67 c-6 -6 -96 19 -102 28 -15 24 12 25 56 2 28 -14 49
-28 46 -30z m-126 -4 c0 -32 -36 -59 -80 -59 -22 0 -40 5 -40 10 0 19 39 88
52 92 21 7 68 -22 68 -43z m1755 -59 c66 -16 174 -38 240 -50 335 -59 482 -97
653 -166 87 -34 177 -83 169 -90 -2 -2 -60 9 -128 25 -68 17 -225 51 -349 76
-270 55 -452 102 -584 149 -114 42 -296 126 -296 137 0 4 39 -6 88 -22 48 -16
141 -43 207 -59z m-577 32 c56 -45 101 -110 83 -122 -11 -6 -11 -14 0 -44 16
-45 7 -55 -31 -32 -17 9 -35 14 -40 11 -6 -4 -9 -3 -8 2 3 10 -29 72 -51 97
-16 19 -15 19 12 1 32 -21 33 -16 7 33 -10 20 -26 51 -33 69 -13 28 -13 31 2
26 9 -3 35 -22 59 -41z m85 26 c43 -30 169 -140 164 -144 -2 -2 -21 1 -43 7
-47 13 -120 70 -130 102 -3 12 -13 30 -22 40 -21 23 -7 21 31 -5z m847 -99
c50 -12 89 -23 87 -25 -5 -5 -209 35 -216 42 -10 10 44 2 129 -17z m-715 -88
c58 -44 189 -130 292 -192 151 -90 318 -195 342 -216 13 -11 -12 -10 -67 1
-46 9 -71 21 -95 44 -31 30 -35 31 -65 20 -38 -15 -69 -1 -169 74 l-63 47 0
-61 c0 -77 -34 -194 -63 -216 -12 -9 -41 -37 -65 -60 -24 -24 -45 -42 -46 -40
-2 1 1 48 6 103 4 55 5 116 2 135 -7 45 -44 149 -55 156 -19 11 -8 24 20 24
16 0 62 7 102 15 58 12 74 13 81 3 6 -9 8 -7 6 7 -3 17 -10 20 -43 17 -37 -3
-44 1 -101 60 -66 68 -140 158 -131 158 4 0 54 -36 112 -79z m-1951 -118 c3
-3 6 0 6 8 1 8 8 2 16 -13 12 -23 22 -28 52 -29 35 0 36 -1 12 -11 -14 -6 -32
-11 -40 -12 -16 -1 -17 -12 -6 -100 6 -47 5 -57 -6 -54 -16 6 -42 96 -68 242
-26 145 -24 184 4 68 13 -51 26 -95 30 -99z m3210 78 c324 -82 517 -161 551
-224 16 -31 16 -34 -4 -79 -11 -27 -23 -48 -26 -48 -3 0 -62 40 -132 89 -181
127 -325 206 -477 262 -72 27 -125 48 -119 49 7 0 100 -22 207 -49z m-3299
-122 c-9 -35 -19 -66 -22 -69 -6 -6 4 49 19 103 18 62 20 34 3 -34z m1713 26
c26 -41 27 -45 8 -45 -8 0 -16 -6 -19 -12 -2 -9 -24 3 -61 31 -56 43 -72 68
-22 36 27 -18 46 -13 46 11 0 25 24 15 48 -21z m147 15 c10 -11 14 -20 8 -20
-5 0 -18 9 -28 20 -10 11 -14 20 -8 20 5 0 18 -9 28 -20z m-1698 -92 c-3 -8
-6 -5 -6 6 -1 11 2 17 5 13 3 -3 4 -12 1 -19z m4288 2 c25 0 33 -6 42 -31 11
-29 15 -31 48 -25 23 5 35 3 35 -4 0 -19 -20 -49 -39 -60 -41 -21 -120 35
-105 74 4 11 -2 19 -20 26 -26 9 -32 21 -19 34 4 3 11 2 17 -4 5 -5 24 -10 41
-10z m983 -98 c2 -13 -3 -25 -13 -28 -13 -6 -14 -9 -3 -16 9 -7 2 -8 -21 -4
-18 3 -40 6 -47 6 -8 0 -11 6 -8 15 4 9 0 15 -7 15 -9 1 -4 9 10 21 33 27 85
23 89 -9z m-5550 -101 c23 -35 42 -73 42 -84 0 -12 6 -40 14 -62 8 -22 17 -56
21 -75 7 -30 6 -33 -8 -22 -12 10 -18 10 -32 -5 -14 -13 -16 -27 -11 -72 l6
-56 -19 30 c-10 17 -44 73 -75 126 -64 110 -106 149 -162 149 -37 0 -36 0 62
70 55 38 104 68 109 67 6 -2 29 -31 53 -66z m1562 18 c12 -23 19 -43 16 -46
-4 -4 -46 69 -46 82 0 15 12 1 30 -36z m3760 -49 c13 -24 37 -26 61 -4 16 14
20 14 38 2 20 -14 20 -15 -6 -51 -21 -30 -33 -37 -60 -37 -33 0 -50 13 -86 65
-15 21 -22 24 -33 14 -8 -6 -14 -9 -14 -5 0 3 0 9 0 13 0 4 14 9 32 11 18 2
35 6 37 8 9 9 21 3 31 -16z m-1020 -36 c0 -12 -5 -26 -11 -30 -7 -4 -7 -9 -1
-13 5 -3 12 -16 16 -29 10 -31 -17 -39 -60 -19 -43 21 -44 46 -2 97 24 31 34
37 45 29 7 -6 13 -22 13 -35z m-1966 -23 c6 -9 -41 -57 -49 -49 -3 3 -1 17 4
32 10 25 34 35 45 17z m3266 -9 c0 -44 -34 -126 -67 -163 -37 -40 -105 -69
-167 -69 -26 -1 -28 -2 -13 -11 21 -12 101 2 147 26 40 21 38 10 -10 -50 -22
-27 -44 -60 -50 -72 -28 -64 -158 -174 -294 -248 -112 -61 -324 -145 -366
-145 -29 0 -44 8 -77 43 -43 45 -149 183 -178 232 l-17 30 25 -28 26 -27 17
35 c9 19 20 33 24 30 4 -2 12 7 19 21 l11 25 47 -41 c26 -23 60 -49 75 -58 16
-9 28 -22 28 -28 0 -7 7 -15 16 -18 24 -9 54 -7 54 4 0 6 10 10 23 10 12 0 45
11 72 25 28 13 56 25 63 25 23 0 12 20 -12 20 -14 0 -38 11 -54 24 -36 31
-114 62 -170 69 -53 6 -67 17 -21 16 19 0 48 2 64 5 17 2 62 0 100 -5 165 -23
156 -25 250 36 104 67 171 156 147 195 -10 16 -5 17 56 14 58 -3 61 -2 27 5
-23 5 -56 16 -75 24 l-35 15 41 -5 c33 -4 53 1 90 21 39 20 56 24 83 18 l34
-7 -38 -34 c-32 -28 -34 -32 -14 -26 29 9 67 38 86 65 18 25 33 26 33 2z
m-2312 -69 c-10 -2 -26 -2 -35 0 -10 3 -2 5 17 5 19 0 27 -2 18 -5z m955 -29
c41 -38 41 -40 5 -58 -15 -8 -22 -19 -20 -33 4 -28 -28 -40 -46 -16 -11 15 -9
20 13 36 14 10 25 27 25 38 0 22 -11 24 -28 7 -14 -14 -16 1 -6 40 8 29 12 28
57 -14z m77 -4 c0 -5 -11 -10 -24 -10 -14 0 -28 5 -31 10 -4 6 7 10 24 10 17
0 31 -4 31 -10z m-1298 -18 c6 -6 8 -15 4 -20 -6 -10 -141 19 -154 34 -11 11
138 -2 150 -14z m355 -85 c46 -34 83 -65 83 -69 0 -5 -12 -8 -26 -8 -20 0 -47
20 -103 76 -88 89 -71 89 46 1z m-432 33 c39 -12 76 -27 82 -32 16 -13 45 -70
39 -76 -3 -2 -25 -1 -49 2 -36 6 -53 17 -108 73 -35 36 -57 64 -49 61 8 -3 47
-15 85 -28z m567 -16 c115 -33 231 -76 256 -96 37 -31 -13 -51 -72 -28 -14 5
-64 14 -112 21 -83 11 -90 14 -168 71 -45 33 -82 64 -84 69 -5 12 41 3 180
-37z m1412 -2 c-9 -36 -34 -72 -35 -52 -4 45 15 95 32 85 5 -4 6 -18 3 -33z
m665 9 c-20 -16 -22 -22 -12 -44 11 -24 11 -26 -9 -18 -12 4 -24 13 -25 18 -4
12 57 77 65 69 2 -3 -6 -14 -19 -25z m-3391 7 c-2 -6 -10 -14 -16 -16 -7 -2
-10 2 -6 12 7 18 28 22 22 4z m-2108 -22 c0 -13 -7 -29 -15 -36 -13 -11 -15
-8 -15 17 0 16 3 33 7 36 13 14 23 6 23 -17z m5570 5 c0 -5 -7 -14 -15 -21
-13 -10 -15 -9 -15 9 0 12 6 21 15 21 8 0 15 -4 15 -9z m-50 -15 c0 -3 -4 -8
-10 -11 -5 -3 -10 -1 -10 4 0 6 5 11 10 11 6 0 10 -2 10 -4z m-5486 -87 c-7
-12 -74 -11 -74 0 0 6 10 17 22 25 20 14 24 14 40 -1 10 -8 15 -20 12 -24z
m5461 8 c17 -31 16 -34 -1 -72 -21 -43 -51 -62 -41 -26 3 11 2 19 -3 16 -4 -3
-10 -14 -13 -26 -5 -18 -2 -20 19 -16 23 4 25 2 19 -22 -4 -14 -8 -36 -10 -48
-5 -49 -67 -109 -98 -97 -20 7 -37 56 -37 104 0 20 12 60 26 89 27 54 92 131
111 131 5 0 18 -15 28 -33z m-5233 -21 c5 -22 14 -46 21 -55 7 -9 -3 -6 -23 7
-19 13 -56 33 -82 44 -27 12 -48 25 -48 29 0 10 36 16 85 15 37 -1 40 -3 47
-40z m-92 -22 c118 -63 129 -71 182 -137 44 -56 46 -67 17 -85 -18 -12 -24
-11 -43 7 -12 12 -25 21 -29 21 -3 0 -7 -28 -9 -62 l-3 -63 -27 58 c-39 83
-108 168 -174 213 -46 31 -53 40 -36 42 12 2 30 -2 41 -7 25 -14 41 -14 41 -1
0 6 -14 17 -30 24 -17 7 -27 15 -23 19 9 9 37 0 93 -29z m4445 -14 c8 -13 -5
-13 -25 0 -13 8 -13 10 2 10 9 0 20 -4 23 -10z m-1140 -30 c33 -14 125 -104
125 -123 0 -2 -12 -2 -26 1 -24 4 -26 2 -21 -19 22 -90 30 -117 43 -136 8 -13
11 -23 6 -23 -4 0 -16 15 -26 33 -38 66 -165 254 -180 266 -42 35 0 35 79 1z
m-3515 -66 c0 -59 -3 -74 -15 -74 -17 0 -19 24 -9 107 9 75 24 55 24 -33z
m2237 17 c41 -96 63 -166 47 -146 -20 25 -69 130 -78 168 -9 40 12 25 31 -22z
m1414 4 c24 -13 36 -25 30 -30 -6 -3 -9 -11 -6 -16 15 -23 -15 -5 -60 36 -54
50 -40 54 36 10z m-3601 -48 c0 -1 8 -25 18 -52 25 -69 27 -132 6 -156 -32
-35 -41 -23 -46 64 -6 90 -1 147 13 147 5 0 9 -1 9 -3z m2361 -124 c13 -16 12
-17 -3 -4 -10 7 -18 15 -18 17 0 8 8 3 21 -13z m2939 -28 c-15 -39 -23 -25 -8
16 6 18 13 29 15 23 2 -6 -1 -24 -7 -39z m-5209 -16 c35 -55 170 -169 199
-169 10 0 21 8 24 17 11 28 84 -156 106 -265 10 -54 21 -152 23 -219 4 -116 3
-123 -15 -123 -27 0 -212 189 -276 282 -90 132 -95 147 -100 351 -3 97 -2 177
1 177 3 0 20 -23 38 -51z m5239 -50 c-7 -16 -16 -29 -21 -29 -10 0 -3 39 14
80 l11 25 4 -23 c2 -13 -2 -37 -8 -53z m-316 51 c-12 -12 -195 -92 -200 -87
-2 2 36 20 84 42 48 21 91 42 97 47 13 12 31 10 19 -2z m358 -32 c-6 -6 -7 0
-4 19 5 21 7 23 10 9 2 -10 0 -22 -6 -28z m-4990 -89 c26 -119 36 -174 33
-177 -2 -2 -11 18 -21 45 -10 26 -29 65 -42 87 -20 32 -22 43 -13 63 15 33 34
25 43 -18z m3894 -111 c-7 -37 -32 -78 -46 -78 -15 0 -12 26 5 40 8 7 13 15
11 19 -6 11 13 51 25 51 8 0 9 -11 5 -32z m-3521 -208 c51 -38 181 -120 291
-183 256 -146 282 -164 302 -205 10 -20 32 -43 52 -54 42 -22 90 -83 90 -114
0 -15 13 -33 35 -50 20 -15 33 -29 31 -32 -5 -4 -140 50 -361 145 -116 50
-239 123 -330 196 -134 108 -295 319 -315 414 -6 26 -13 58 -15 71 -4 16 14 2
62 -48 37 -39 108 -102 158 -140z m3833 148 c-5 -14 -48 -22 -48 -9 0 8 17 16
43 20 5 0 7 -4 5 -11z m-4553 -43 c9 -40 -3 -27 -15 15 -5 19 -6 29 -1 24 5
-5 12 -22 16 -39z m4666 -2 c13 -16 12 -17 -3 -4 -10 7 -18 15 -18 17 0 8 8 3
21 -13z m-81 -53 c0 -18 8 -34 22 -44 l22 -16 -22 0 c-12 0 -22 -5 -22 -10 0
-16 -33 -8 -47 11 -10 13 -8 24 9 57 22 46 38 47 38 2z m417 8 c-3 -8 -6 -5
-6 6 -1 11 2 17 5 13 3 -3 4 -12 1 -19z m-101 -40 c-1 -24 1 -48 6 -55 6 -7 2
-14 -12 -18 -27 -9 -38 1 -46 42 -5 24 -1 36 15 52 31 31 41 26 37 -21z m-392
14 c6 -10 -21 -72 -32 -72 -17 0 -22 29 -10 55 11 24 32 33 42 17z m503 -6 c5
-8 19 -20 33 -25 24 -10 23 -11 -6 -6 -26 5 -35 1 -53 -22 -11 -15 -18 -20
-15 -10 3 9 1 24 -6 32 -10 12 -10 18 0 30 16 19 37 19 47 1z m-286 -59 c-8
-8 -11 -5 -11 9 0 27 14 41 18 19 2 -9 -1 -22 -7 -28z m-221 -22 c0 -8 -4 -15
-10 -15 -5 0 -10 7 -10 15 0 8 5 15 10 15 6 0 10 -7 10 -15z m125 -65 c-3 -5
-10 -10 -16 -10 -5 0 -9 5 -9 10 0 6 7 10 16 10 8 0 12 -4 9 -10z m9 -37 c9
-22 -10 -41 -25 -26 -13 13 -5 43 10 43 5 0 12 -8 15 -17z m-4463 -88 c8 -16
6 -15 -10 4 -12 13 -21 28 -21 35 0 12 14 -5 31 -39z m4500 19 c18 3 28 2 24
-4 -7 -11 -55 -13 -79 -4 -9 3 -13 10 -10 16 3 5 11 4 20 -3 8 -7 27 -9 45 -5z
m-4084 -224 c-12 -18 -14 -17 -26 18 -7 20 -26 72 -42 114 -44 117 -34 115 27
-5 48 -95 53 -110 41 -127z m4393 116 c16 -54 30 -104 30 -111 0 -18 -36 -23
-116 -16 -89 7 -199 5 -246 -4 -36 -7 -40 -5 -89 45 -28 28 -48 54 -45 57 3 4
-3 12 -14 20 -11 8 -20 23 -20 33 0 10 -8 23 -17 28 -11 7 50 12 183 15 132 3
216 10 249 20 28 8 51 14 52 13 2 -1 16 -46 33 -100z m-3414 -44 c24 -25 44
-49 44 -53 0 -14 -55 -15 -105 -1 -48 13 -150 70 -142 79 3 2 30 -8 61 -23 30
-16 58 -25 61 -22 9 9 9 40 1 66 -7 22 -6 23 14 12 12 -7 42 -32 66 -58z"/>
<path d="M7920 3581 c0 -7 9 -29 20 -51 11 -22 20 -57 20 -80 0 -27 4 -40 14
-40 7 0 25 -9 40 -21 14 -11 26 -17 26 -12 0 4 27 8 60 8 47 0 62 4 73 19 13
18 12 22 -7 38 -26 21 -15 23 24 3 27 -14 30 -14 40 5 10 18 8 19 -20 14 -25
-5 -35 -1 -63 27 -19 19 -36 39 -38 45 -2 6 -15 14 -29 18 -24 7 -24 6 5 -18
43 -37 19 -32 -40 8 -53 36 -125 57 -125 37z m117 -87 c-3 -3 -12 -4 -19 -1
-8 3 -5 6 6 6 11 1 17 -2 13 -5z"/>
<path d="M8140 3515 c0 -2 11 -12 25 -21 30 -20 73 -11 54 12 -8 9 -16 11 -23
5 -7 -6 -17 -6 -26 -1 -16 11 -30 13 -30 5z"/>
<path d="M8297 3478 c18 -13 33 -29 33 -35 0 -19 -14 -16 -35 7 -19 20 -19 20
-52 -12 -45 -44 -42 -54 13 -49 25 2 57 -2 70 -9 21 -12 26 -10 43 11 11 13
20 30 21 38 0 9 8 12 25 9 14 -3 30 1 36 8 9 11 5 14 -20 14 -17 0 -31 5 -31
11 0 7 -10 5 -25 -5 -30 -20 -39 -20 -31 -1 3 10 -1 15 -14 15 -10 0 -22 5
-25 10 -3 6 -14 10 -23 10 -11 0 -6 -8 15 -22z"/>
<path d="M8431 3401 c-7 -5 -12 -14 -10 -20 2 -6 10 -2 17 9 14 22 13 23 -7
11z"/>
<path d="M10406 2795 c-3 -9 -6 -26 -5 -38 1 -16 4 -12 10 12 10 34 6 55 -5
26z"/>
<path d="M10415 2700 c3 -5 8 -10 11 -10 2 0 4 5 4 10 0 6 -5 10 -11 10 -5 0
-7 -4 -4 -10z"/>
<path d="M5918 5573 c7 -3 16 -2 19 1 4 3 -2 6 -13 5 -11 0 -14 -3 -6 -6z"/>
<path d="M6890 5345 c0 -2 26 -21 58 -41 31 -20 72 -50 91 -68 34 -32 91 -137
91 -168 0 -10 5 -18 10 -18 18 0 11 45 -16 98 -30 60 -116 142 -185 178 -27
13 -49 22 -49 19z"/>
<path d="M4160 5103 c-18 -8 -46 -12 -61 -9 -27 5 -27 4 -18 -27 5 -17 9 -49
9 -70 0 -54 13 -73 73 -104 46 -24 64 -27 150 -27 93 -1 98 0 93 19 -3 11 -6
43 -6 71 0 43 -5 56 -34 90 -49 57 -145 84 -206 57z"/>
<path d="M7548 4783 c7 -3 16 -2 19 1 4 3 -2 6 -13 5 -11 0 -14 -3 -6 -6z"/>
<path d="M7678 4773 c6 -2 18 -2 25 0 6 3 1 5 -13 5 -14 0 -19 -2 -12 -5z"/>
<path d="M7942 4698 c2 -6 10 -14 16 -16 7 -2 10 2 6 12 -7 18 -28 22 -22 4z"/>
<path d="M4715 4650 c-22 -10 -52 -19 -66 -19 -19 -1 -28 -8 -32 -23 -5 -19
-4 -21 6 -8 7 8 32 21 57 28 132 39 137 41 105 41 -16 0 -48 -9 -70 -19z"/>
<path d="M7668 4643 c7 -3 16 -2 19 1 4 3 -2 6 -13 5 -11 0 -14 -3 -6 -6z"/>
<path d="M8610 4565 c0 -14 -4 -25 -10 -25 -16 0 -12 -27 5 -34 11 -4 15 1 15
18 0 13 7 29 15 36 21 17 19 30 -5 30 -15 0 -20 -7 -20 -25z"/>
<path d="M7665 4560 c-18 -8 -17 -9 7 -9 15 -1 30 4 33 9 7 12 -12 12 -40 0z"/>
<path d="M4465 4531 c-22 -11 -34 -20 -27 -20 7 -1 23 4 35 11 12 7 40 15 62
19 l40 6 -35 1 c-19 1 -53 -7 -75 -17z"/>
<path d="M7992 4510 c0 -14 2 -19 5 -12 2 6 2 18 0 25 -3 6 -5 1 -5 -13z"/>
<path d="M8315 4511 c-3 -5 -1 -12 5 -16 5 -3 10 1 10 9 0 18 -6 21 -15 7z"/>
<path d="M9133 4475 c4 -51 52 -175 69 -175 5 0 3 10 -3 23 -7 12 -25 63 -41
112 -27 85 -28 87 -25 40z"/>
<path d="M7880 4501 c0 -5 3 -17 6 -25 6 -15 8 -15 19 1 10 13 10 20 2 25 -16
10 -27 10 -27 -1z"/>
<path d="M8716 4485 c6 -23 3 -25 -25 -25 -17 0 -31 5 -31 10 0 19 -32 10 -37
-10 -3 -11 -11 -20 -18 -20 -7 0 -26 -7 -41 -15 -37 -19 -83 -19 -90 0 -7 18
-45 20 -62 3 -23 -23 -9 -110 15 -95 13 8 264 47 302 47 34 0 38 11 20 57 -7
15 -11 38 -10 51 0 13 -5 22 -14 22 -11 0 -14 -7 -9 -25z m-236 -105 c9 -17 7
-20 -15 -26 -32 -8 -39 -2 -30 25 8 26 31 27 45 1z m102 14 c15 -9 -12 -24
-44 -24 -18 0 -26 4 -22 13 5 14 50 21 66 11z"/>
<path d="M6510 4475 c0 -8 2 -15 4 -15 2 0 6 7 10 15 3 8 1 15 -4 15 -6 0 -10
-7 -10 -15z"/>
<path d="M8434 4476 c-8 -22 -2 -27 16 -16 12 7 12 12 3 21 -10 10 -14 9 -19
-5z"/>
<path d="M6642 4450 c-12 -16 -37 -34 -55 -39 -28 -8 -23 -9 35 -9 47 0 71 5
80 15 10 13 6 14 -26 8 l-38 -8 16 32 c21 39 16 40 -12 1z"/>
<path d="M7998 4425 c2 -19 6 -35 8 -35 2 0 4 16 4 35 0 19 -4 35 -8 35 -4 0
-6 -16 -4 -35z"/>
<path d="M7515 4431 c-6 -11 9 -23 19 -14 9 9 7 23 -3 23 -6 0 -12 -4 -16 -9z"/>
<path d="M8341 4362 c2 -30 3 -32 6 -9 2 15 9 25 14 22 5 -4 9 -2 9 3 0 6 -7
12 -15 16 -12 4 -15 -3 -14 -32z"/>
<path d="M7520 4366 c0 -20 19 -31 32 -18 7 7 3 14 -11 21 -17 10 -21 9 -21
-3z"/>
<path d="M8970 4360 c0 -5 5 -10 10 -10 6 0 10 5 10 10 0 6 -4 10 -10 10 -5 0
-10 -4 -10 -10z"/>
<path d="M5053 4325 c0 -22 2 -30 4 -17 2 12 2 30 0 40 -3 9 -5 -1 -4 -23z"/>
<path d="M9065 4330 c-7 -12 2 -30 16 -30 5 0 9 9 9 20 0 21 -15 27 -25 10z"/>
<path d="M8881 4304 c-21 -15 -48 -24 -71 -24 -42 0 -67 -21 -76 -66 -5 -28
-1 -35 48 -74 67 -55 78 -68 78 -97 0 -29 3 -29 54 6 53 37 90 85 106 138 15
50 7 87 -25 119 -30 30 -69 30 -114 -2z"/>
<path d="M9240 4310 c0 -5 7 -7 15 -4 8 4 15 8 15 10 0 2 -7 4 -15 4 -8 0 -15
-4 -15 -10z"/>
<path d="M5950 4169 c-22 -18 -22 -19 -3 -10 12 6 25 16 28 21 9 15 3 12 -25
-11z"/>
<path d="M3240 4135 c-16 -19 -3 -19 30 0 24 13 24 14 4 15 -12 0 -27 -7 -34
-15z"/>
<path d="M3506 4109 c21 -26 65 -85 97 -133 32 -47 61 -86 63 -86 14 0 -129
200 -167 235 -29 26 -28 24 7 -16z"/>
<path d="M8384 4134 c3 -9 6 -25 6 -37 0 -13 4 -17 9 -11 12 11 2 64 -11 64
-6 0 -7 -7 -4 -16z"/>
<path d="M3378 4123 c41 -21 41 -33 -1 -26 -19 3 -47 -2 -67 -11 l-35 -16 32
6 c18 3 57 2 88 -1 68 -9 89 -29 175 -166 34 -55 64 -98 67 -95 10 9 -91 168
-146 229 -37 41 -116 98 -135 96 -6 0 4 -8 22 -16z"/>
<path d="M3200 4080 c-6 -11 -8 -20 -6 -20 3 0 10 9 16 20 6 11 8 20 6 20 -3
0 -10 -9 -16 -20z"/>
<path d="M6395 4041 c-16 -7 -13 -9 19 -15 21 -4 41 -5 44 -2 13 14 -36 27
-63 17z"/>
<path d="M6480 4040 c-11 -7 -7 -10 18 -10 20 0 31 4 27 10 -8 13 -26 13 -45
0z"/>
<path d="M3081 3998 c-33 -33 -45 -55 -57 -106 -6 -26 -5 -26 8 -7 8 11 20 36
27 55 6 19 23 47 38 62 37 39 24 35 -16 -4z"/>
<path d="M3124 3984 c-13 -50 2 -158 29 -215 23 -47 26 -44 10 11 -3 8 12 -13
32 -48 79 -136 210 -232 365 -267 41 -10 97 -24 124 -31 58 -16 76 -17 76 -5
0 5 -42 16 -92 26 -87 16 -125 26 -173 45 -11 5 -32 11 -46 14 -49 11 -150 88
-195 148 -64 88 -135 288 -118 333 4 8 3 15 0 15 -3 0 -9 -12 -12 -26z"/>
<path d="M4952 3990 c0 -14 2 -19 5 -12 2 6 2 18 0 25 -3 6 -5 1 -5 -13z"/>
<path d="M9026 3992 c-4 -13 -5 -26 -2 -29 10 -11 18 4 14 29 l-4 23 -8 -23z"/>
<path d="M4930 3880 c-7 -44 -10 -83 -8 -86 3 -3 11 32 18 76 7 44 10 83 8 86
-3 3 -11 -32 -18 -76z"/>
<path d="M3984 3926 c11 -9 24 -16 30 -16 12 0 7 5 -24 19 -24 11 -24 11 -6
-3z"/>
<path d="M4040 3900 c27 -17 459 -180 478 -180 17 0 -23 28 -41 28 -12 0 -51
12 -87 27 -36 14 -108 41 -160 59 -53 19 -115 43 -138 55 -42 22 -81 30 -52
11z"/>
<path d="M8460 3845 c14 -8 30 -14 35 -14 6 0 -1 6 -15 14 -14 8 -29 14 -35
14 -5 0 1 -6 15 -14z"/>
<path d="M3045 3825 c9 -45 55 -131 92 -173 33 -37 33 -36 -5 19 -21 31 -45
74 -54 95 -9 21 -21 50 -27 64 -11 24 -11 24 -6 -5z"/>
<path d="M6533 3772 c-30 -49 -30 -49 -10 -65 11 -9 23 -14 26 -11 3 3 -3 12
-13 20 -17 12 -18 16 -5 31 21 27 41 64 36 69 -2 2 -17 -18 -34 -44z"/>
<path d="M8280 3810 c-11 -7 -7 -10 18 -10 20 0 31 4 27 10 -8 13 -26 13 -45
0z"/>
<path d="M3495 3760 c10 -11 20 -20 23 -20 3 0 -3 9 -13 20 -10 11 -20 20 -23
20 -3 0 3 -9 13 -20z"/>
<path d="M8650 3750 c35 -24 54 -31 30 -11 -14 11 -29 21 -35 21 -5 0 -3 -5 5
-10z"/>
<path d="M3882 3645 c54 -54 95 -101 93 -105 -6 -9 96 -80 143 -99 18 -8 32
-19 32 -25 0 -6 14 -11 30 -12 17 -1 30 0 30 2 0 2 -19 16 -42 31 -75 48 -199
145 -293 227 l-90 79 97 -98z"/>
<path d="M3730 3711 c0 -8 80 -80 144 -129 37 -28 55 -28 30 -1 -29 33 -174
141 -174 130z"/>
<path d="M5570 3710 c0 -5 5 -10 11 -10 5 0 7 5 4 10 -3 6 -8 10 -11 10 -2 0
-4 -4 -4 -10z"/>
<path d="M3190 3690 c6 -11 13 -20 16 -20 2 0 0 9 -6 20 -6 11 -13 20 -16 20
-2 0 0 -9 6 -20z"/>
<path d="M5748 3691 c-15 -21 -12 -91 3 -91 9 0 39 40 39 52 0 5 -5 8 -11 8
-5 0 -7 -4 -4 -10 3 -5 2 -10 -4 -10 -19 0 -22 20 -5 45 19 29 2 35 -18 6z"/>
<path d="M3630 3685 c0 -8 122 -67 127 -61 3 2 -8 11 -24 19 -43 22 -103 47
-103 42z"/>
<path d="M5587 3682 c-2 -4 7 -18 20 -31 21 -22 23 -22 23 -5 0 19 -36 50 -43
36z"/>
<path d="M4530 3665 c14 -8 30 -14 35 -14 6 0 -1 6 -15 14 -14 8 -29 14 -35
14 -5 0 1 -6 15 -14z"/>
<path d="M4039 3631 c29 -22 161 -94 161 -88 0 9 -157 107 -171 107 -9 0 -5
-7 10 -19z"/>
<path d="M2991 3624 c0 -11 3 -14 6 -6 3 7 2 16 -1 19 -3 4 -6 -2 -5 -13z"/>
<path d="M5597 3614 c3 -8 11 -14 19 -14 21 0 17 17 -5 23 -14 3 -18 1 -14 -9z"/>
<path d="M5805 3610 c3 -5 11 -10 16 -10 6 0 7 5 4 10 -3 6 -11 10 -16 10 -6
0 -7 -4 -4 -10z"/>
<path d="M3221 3555 c30 -33 59 -73 63 -88 3 -15 11 -25 16 -22 6 4 6 14 -1
27 -10 18 -9 20 7 14 11 -4 15 -4 9 2 -5 4 -41 35 -80 67 l-70 60 56 -60z"/>
<path d="M3820 3595 c7 -8 17 -15 22 -15 6 0 5 7 -2 15 -7 8 -17 15 -22 15 -6
0 -5 -7 2 -15z"/>
<path d="M3717 3563 c27 -26 93 -60 93 -48 0 3 -17 14 -37 25 -21 11 -49 28
-63 37 -19 12 -17 9 7 -14z"/>
<path d="M4700 3530 c30 -16 60 -29 65 -29 6 0 -15 13 -45 29 -30 16 -59 29
-65 29 -5 0 15 -13 45 -29z"/>
<path d="M5720 3530 c0 -11 5 -20 10 -20 6 0 10 9 10 20 0 11 -4 20 -10 20 -5
0 -10 -9 -10 -20z"/>
<path d="M3985 3466 c43 -42 79 -75 82 -73 7 8 -94 111 -127 131 -21 12 -6 -8
45 -58z"/>
<path d="M5667 3520 c3 -11 7 -20 9 -20 2 0 4 9 4 20 0 11 -4 20 -9 20 -5 0
-7 -9 -4 -20z"/>
<path d="M4790 3490 c8 -6 24 -16 35 -22 20 -11 20 -11 1 11 -11 11 -26 21
-35 21 -14 0 -14 -2 -1 -10z"/>
<path d="M5615 3470 c-3 -5 -2 -10 4 -10 5 0 13 5 16 10 3 6 2 10 -4 10 -5 0
-13 -4 -16 -10z"/>
<path d="M3600 3426 c0 -2 7 -9 15 -16 9 -7 15 -8 15 -2 0 5 -7 12 -15 16 -8
3 -15 4 -15 2z"/>
<path d="M3110 3417 c0 -9 51 -87 57 -87 5 0 -35 69 -49 85 -4 5 -8 6 -8 2z"/>
<path d="M3675 3410 c-3 -5 11 -18 32 -29 31 -16 34 -20 16 -21 -12 0 -48 7
-80 15 -67 18 -83 19 -83 5 0 -5 6 -10 14 -10 8 0 27 -5 41 -10 23 -9 25 -13
15 -25 -19 -23 -7 -28 37 -16 50 14 59 14 76 -4 8 -8 30 -23 48 -33 23 -12 35
-27 37 -45 2 -17 8 -24 17 -21 7 3 16 -3 19 -14 4 -11 34 -34 67 -52 53 -28
66 -31 110 -25 l49 7 0 57 c0 72 -27 117 -90 149 -78 39 -184 25 -158 -22 5
-10 8 -20 5 -23 -3 -3 -13 9 -22 26 -10 21 -30 37 -58 48 -40 16 -41 17 -17
24 25 7 25 7 -3 8 -16 1 -37 6 -47 11 -12 6 -21 7 -25 0z"/>
<path d="M4115 3380 c-3 -5 -3 -15 1 -21 6 -11 23 6 24 24 0 10 -18 9 -25 -3z"/>
<path d="M4166 3345 c-3 -8 -1 -15 4 -15 6 0 10 7 10 15 0 8 -2 15 -4 15 -2 0
-6 -7 -10 -15z"/>
<path d="M3475 3330 c3 -5 10 -10 16 -10 5 0 9 5 9 10 0 6 -7 10 -16 10 -8 0
-12 -4 -9 -10z"/>
<path d="M4093 3312 c10 -10 17 -24 17 -30 0 -7 5 -12 10 -12 18 0 11 39 -9
50 -29 15 -36 12 -18 -8z"/>
<path d="M3115 3300 c3 -5 11 -10 16 -10 6 0 7 5 4 10 -3 6 -11 10 -16 10 -6
0 -7 -4 -4 -10z"/>
<path d="M3460 3293 c0 -1 13 -9 30 -18 27 -14 29 -14 23 2 -4 11 -3 14 5 9 7
-4 12 -3 12 1 0 5 -16 9 -35 9 -19 0 -35 -1 -35 -3z"/>
<path d="M3707 3293 c-21 -20 7 -63 42 -63 16 0 24 40 11 55 -13 16 -42 20
-53 8z"/>
<path d="M4155 3280 c3 -5 11 -10 16 -10 6 0 7 5 4 10 -3 6 -11 10 -16 10 -6
0 -7 -4 -4 -10z"/>
<path d="M4372 3260 c1 -16 5 -30 10 -30 11 0 10 47 -1 55 -5 3 -9 -8 -9 -25z"/>
<path d="M2793 3217 c-22 -55 -35 -197 -23 -252 4 -23 8 -9 14 54 4 46 14 94
21 105 14 23 26 134 15 141 -4 2 -16 -19 -27 -48z"/>
<path d="M3620 3246 c0 -9 5 -16 10 -16 6 0 10 4 10 9 0 6 -4 13 -10 16 -5 3
-10 -1 -10 -9z"/>
<path d="M4160 3253 c0 -6 8 -17 18 -24 16 -13 16 -13 2 6 -8 11 -16 22 -17
24 -2 2 -3 0 -3 -6z"/>
<path d="M4437 3209 c7 -7 15 -10 18 -7 3 3 -2 9 -12 12 -14 6 -15 5 -6 -5z"/>
<path d="M4357 3193 c-2 -5 -7 -20 -11 -35 -3 -15 -32 -55 -64 -90 -52 -57
-53 -60 -16 -30 44 33 119 148 104 157 -5 3 -11 2 -13 -2z"/>
<path d="M3816 3175 c-9 -26 -7 -32 5 -12 6 10 9 21 6 23 -2 3 -7 -2 -11 -11z"/>
<path d="M4166 3167 c3 -10 9 -15 12 -12 3 3 0 11 -7 18 -10 9 -11 8 -5 -6z"/>
<path d="M3145 3160 c3 -5 8 -10 11 -10 2 0 4 5 4 10 0 6 -5 10 -11 10 -5 0
-7 -4 -4 -10z"/>
<path d="M4260 3140 c-24 -18 -24 -19 -3 -14 12 4 28 12 34 20 17 20 -2 17
-31 -6z"/>
<path d="M3233 3137 c6 -15 4 -16 -14 -7 -11 6 -29 10 -41 8 l-20 -3 21 -25
c13 -14 24 -20 27 -14 2 6 18 8 34 6 35 -5 38 8 8 34 -19 17 -21 17 -15 1z"/>
<path d="M3780 3140 c-13 -8 -12 -10 3 -10 9 0 17 5 17 10 0 12 -1 12 -20 0z"/>
<path d="M3048 3133 c7 -3 16 -2 19 1 4 3 -2 6 -13 5 -11 0 -14 -3 -6 -6z"/>
<path d="M3101 3127 c-26 -13 -46 -53 -31 -62 6 -4 10 1 10 10 0 9 12 27 26
40 30 28 29 30 -5 12z"/>
<path d="M3010 3112 c0 -12 19 -26 26 -19 2 2 -2 10 -11 17 -9 8 -15 8 -15 2z"/>
<path d="M2824 3048 c13 -114 13 -142 -1 -216 -19 -106 -18 -238 2 -246 13 -5
15 0 9 29 -10 58 5 202 25 226 15 18 23 20 60 14 38 -6 41 -8 24 -21 -17 -12
-17 -13 -1 -14 10 0 33 -16 52 -35 l35 -35 3 43 3 42 79 26 79 26 -84 6 c-46
4 -117 7 -157 7 -75 0 -118 13 -106 31 10 17 -7 179 -18 179 -7 0 -8 -21 -4
-62z"/>
<path d="M3231 3076 c-9 -11 -8 -18 4 -30 33 -33 70 -9 39 25 -20 23 -28 24
-43 5z"/>
<path d="M4325 3066 c-2 -6 -8 -26 -14 -45 -6 -19 -10 -50 -10 -70 1 -37 3
-33 20 57 8 40 15 52 29 52 16 0 17 -4 8 -32 -19 -62 -37 -133 -42 -166 -4
-27 -1 -33 12 -30 9 2 17 8 17 13 2 29 18 55 33 53 12 -2 16 3 14 17 -2 11 -4
34 -5 52 0 18 -7 34 -14 35 -8 2 -9 8 -4 16 13 21 86 -3 131 -45 54 -48 64
-88 50 -200 -16 -130 1 -193 74 -262 l36 -35 51 13 c27 7 52 11 54 9 3 -2 7
-60 11 -129 3 -68 9 -128 14 -132 4 -5 6 11 4 35 -2 23 -5 90 -8 148 -6 128
-24 186 -76 234 -46 42 -54 44 -74 14 -18 -26 -21 -84 -6 -123 18 -47 -12 -23
-40 31 -24 46 -25 56 -22 186 4 166 -9 201 -88 250 -27 17 -47 34 -45 39 3 4
-5 11 -17 15 -38 12 -90 12 -93 0z m398 -449 c11 -14 20 -42 21 -63 1 -37 -1
-39 -37 -48 -45 -12 -51 -6 -67 68 -9 40 -8 53 6 73 14 22 17 23 37 10 12 -8
30 -26 40 -40z"/>
<path d="M2995 3060 c-3 -5 -2 -10 4 -10 5 0 13 5 16 10 3 6 2 10 -4 10 -5 0
-13 -4 -16 -10z"/>
<path d="M3012 3035 c-13 -7 -19 -15 -14 -19 5 -3 21 3 33 14 27 22 16 25 -19
5z"/>
<path d="M4468 3043 c6 -2 18 -2 25 0 6 3 1 5 -13 5 -14 0 -19 -2 -12 -5z"/>
<path d="M7045 3020 c-3 -5 -1 -10 4 -10 6 0 11 5 11 10 0 6 -2 10 -4 10 -3 0
-8 -4 -11 -10z"/>
<path d="M3080 3010 c0 -5 5 -10 11 -10 5 0 7 5 4 10 -3 6 -8 10 -11 10 -2 0
-4 -4 -4 -10z"/>
<path d="M2338 2991 c-54 -43 -118 -213 -162 -433 -28 -135 -42 -236 -33 -228
3 3 16 53 27 110 24 117 86 316 100 325 6 4 10 5 10 3 0 -2 -7 -39 -15 -83
-22 -119 -31 -369 -16 -446 17 -83 44 -135 84 -159 57 -35 142 -22 168 26 18
35 7 38 -44 14 -43 -20 -47 -21 -77 -5 -22 11 -40 34 -58 73 -24 51 -27 71
-30 197 -3 97 1 178 13 265 10 69 19 145 20 170 2 48 14 79 51 123 46 55 17
91 -38 48z"/>
<path d="M4190 2989 c0 -5 5 -7 10 -4 6 3 10 8 10 11 0 2 -4 4 -10 4 -5 0 -10
-5 -10 -11z"/>
<path d="M3100 2960 c0 -5 5 -10 11 -10 5 0 7 5 4 10 -3 6 -8 10 -11 10 -2 0
-4 -4 -4 -10z"/>
<path d="M4083 2933 c-14 -40 -110 -188 -175 -270 -39 -48 -56 -74 -38 -58 48
45 123 142 164 213 40 67 70 132 61 132 -3 0 -8 -8 -12 -17z"/>
<path d="M2513 2889 l77 -30 0 -43 0 -43 36 33 c19 19 33 38 30 43 -3 5 1 12
10 15 25 10 82 7 89 -4 13 -20 25 -9 25 23 l0 32 -173 3 -172 2 78 -31z"/>
<path d="M4210 2915 c0 -5 5 -17 10 -25 5 -8 10 -10 10 -5 0 6 -5 17 -10 25
-5 8 -10 11 -10 5z"/>
<path d="M1996 2875 c-50 -45 -89 -55 -206 -55 -105 0 -129 -9 -155 -60 -20
-39 -20 -149 1 -178 16 -23 67 -31 79 -12 3 6 -1 10 -9 10 -26 0 -56 50 -56
92 0 30 8 50 31 79 l30 38 77 -5 c52 -4 95 -1 132 9 30 9 57 14 59 11 4 -4
-30 -243 -59 -411 -26 -144 -63 -263 -93 -291 -12 -12 -38 -23 -57 -24 -32 -3
-37 1 -55 37 -10 22 -21 65 -23 95 -4 53 -2 58 37 108 52 66 89 68 104 7 4
-18 5 -17 6 3 2 35 -27 82 -50 82 -34 0 -76 -28 -100 -66 -35 -57 -40 -186 -9
-249 42 -86 119 -97 183 -26 19 21 37 52 41 67 5 28 41 248 67 416 18 116 33
118 48 6 40 -299 88 -458 137 -458 19 0 18 7 -5 36 -10 13 -22 45 -25 71 -4
27 -15 73 -25 103 -11 30 -26 114 -35 185 -9 72 -21 159 -27 195 -11 65 -8
155 6 198 10 31 -3 27 -49 -13z"/>
<path d="M4292 2899 c-1 -9 -5 -32 -8 -50 -4 -28 -3 -31 6 -16 6 9 9 32 7 50
-2 17 -5 25 -5 16z"/>
<path d="M4236 2855 c4 -11 15 -42 24 -68 17 -47 18 -48 24 -21 5 19 3 31 -7
39 -7 5 -22 24 -31 40 -10 17 -14 21 -10 10z"/>
<path d="M4175 2840 c3 -5 8 -10 11 -10 2 0 4 5 4 10 0 6 -5 10 -11 10 -5 0
-7 -4 -4 -10z"/>
<path d="M8150 2830 c0 -5 5 -10 11 -10 5 0 7 5 4 10 -3 6 -8 10 -11 10 -2 0
-4 -4 -4 -10z"/>
<path d="M8200 2833 c0 -10 61 -45 67 -39 4 4 -51 46 -61 46 -3 0 -6 -3 -6 -7z"/>
<path d="M4310 2795 c0 -16 7 -25 26 -29 34 -9 40 -2 25 27 -17 32 -51 33 -51
2z"/>
<path d="M4160 2775 c-7 -14 -11 -28 -8 -31 3 -3 13 9 21 25 18 37 6 42 -13 6z"/>
<path d="M2760 2715 c0 -46 -6 -90 -15 -113 -15 -35 -15 -36 1 -20 27 27 48
208 24 208 -6 0 -10 -32 -10 -75z"/>
<path d="M3186 2722 c-23 -26 -36 -76 -36 -137 0 -83 -89 -250 -117 -221 -4 4
0 46 9 94 9 48 14 101 11 119 -5 30 -7 32 -37 26 -43 -8 -75 -29 -94 -64 -10
-16 -25 -29 -34 -29 -9 0 -20 -5 -23 -10 -4 -6 13 -9 45 -8 45 2 54 6 68 30 9
15 22 28 29 28 15 0 15 3 3 -82 -12 -81 -26 -115 -52 -121 -24 -7 -42 35 -33
79 4 24 1 33 -11 38 -9 4 -19 4 -21 2 -12 -12 -2 -120 12 -142 18 -28 33 -30
61 -9 11 9 31 12 49 9 46 -8 85 40 144 179 11 26 25 47 32 47 6 0 8 -7 5 -17
-14 -36 -18 -130 -7 -152 20 -37 69 -25 103 24 27 38 78 178 78 213 0 28 -15
0 -34 -63 -28 -92 -77 -176 -101 -173 -16 2 -21 12 -23 43 -1 22 4 51 13 65
43 73 61 121 57 150 l-4 30 -34 -21 -35 -21 7 44 c4 23 7 47 8 52 2 17 -21 16
-38 -2z"/>
<path d="M4723 2693 c9 -2 23 -2 30 0 6 3 -1 5 -18 5 -16 0 -22 -2 -12 -5z"/>
<path d="M4305 2630 c7 -73 8 -75 30 -66 13 5 14 9 4 28 -7 13 -14 36 -16 53
-2 16 -8 34 -14 40 -8 7 -10 -8 -4 -55z"/>
<path d="M4262 2650 c0 -19 2 -27 5 -17 2 9 2 25 0 35 -3 9 -5 1 -5 -18z"/>
<path d="M4180 2651 c-14 -4 -20 -10 -15 -13 10 -6 55 7 55 17 0 6 -7 5 -40
-4z"/>
<path d="M5731 2626 c19 -18 36 -32 38 -30 6 6 -51 64 -62 64 -6 0 5 -15 24
-34z"/>
<path d="M7087 2590 c-14 -22 -23 -40 -19 -40 10 0 56 69 50 75 -2 3 -16 -13
-31 -35z"/>
<path d="M3516 2569 c-59 -46 -124 -234 -133 -386 -5 -76 -3 -97 11 -118 26
-39 59 -33 103 20 20 25 40 45 44 45 4 0 10 -12 13 -26 6 -24 10 -26 44 -20
20 3 46 7 57 8 15 2 21 13 26 48 4 25 14 62 23 82 9 21 16 63 16 93 l0 57 -32
-7 c-18 -4 -41 -9 -50 -11 -26 -8 -64 -58 -84 -111 -26 -67 -76 -154 -96 -167
-14 -8 -21 -7 -34 6 -13 13 -15 27 -9 73 6 53 11 61 62 109 89 82 143 223 113
296 -15 35 -37 38 -74 9z m48 -101 c-24 -82 -94 -200 -94 -159 0 18 92 211
101 211 4 0 1 -24 -7 -52z m116 -165 c0 -34 -31 -158 -44 -179 -21 -31 -47
-28 -60 7 -12 34 -1 73 27 101 13 13 31 35 40 51 16 25 37 36 37 20z"/>
<path d="M3963 2568 c1 -15 -6 -26 -24 -35 -14 -7 -34 -22 -45 -35 l-19 -22
29 22 c16 12 35 22 43 22 7 0 19 11 25 25 15 34 36 32 106 -15 85 -57 90 -65
62 -95 -13 -14 -31 -25 -39 -26 -11 0 -12 -2 -3 -6 6 -2 29 8 50 24 20 16 57
41 81 57 l43 28 31 -29 c18 -15 33 -31 35 -35 6 -12 30 -9 38 4 4 6 3 8 -4 4
-15 -9 -76 54 -90 95 -9 26 -10 27 -7 6 4 -20 1 -29 -12 -34 -10 -4 -33 -17
-51 -30 l-34 -22 -52 38 c-59 44 -128 81 -150 81 -10 0 -15 -8 -13 -22z"/>
<path d="M1215 2571 c-16 -6 -19 -16 -16 -61 4 -73 14 -96 58 -123 56 -35 101
-48 144 -41 39 7 39 7 39 53 0 60 -42 130 -92 154 -43 20 -107 29 -133 18z"/>
<path d="M2482 2570 c-43 -10 -71 -36 -93 -85 -27 -63 -33 -126 -15 -168 18
-44 38 -54 69 -34 12 8 35 12 52 10 23 -3 36 2 57 24 27 28 78 121 78 142 0
17 53 40 89 39 36 -1 51 14 44 43 -7 25 -23 24 -23 -1 0 -22 -6 -26 -61 -33
-35 -5 -35 -4 -32 26 2 22 -6 9 -26 -41 -34 -85 -82 -163 -96 -159 -11 4 -11
16 0 155 5 53 4 92 -1 91 -5 -1 -24 -5 -42 -9z m18 -57 c0 -29 -25 -143 -37
-165 -15 -31 -47 -37 -57 -12 -13 34 -5 83 18 111 12 15 28 38 35 51 11 20 41
32 41 15z"/>
<path d="M5780 2570 c0 -5 5 -10 11 -10 5 0 7 5 4 10 -3 6 -8 10 -11 10 -2 0
-4 -4 -4 -10z"/>
<path d="M2817 2542 c-10 -10 -17 -28 -17 -39 0 -12 -8 -23 -20 -26 -19 -5
-20 -13 -19 -156 1 -145 10 -195 23 -130 3 18 6 78 6 135 0 95 2 108 30 162
17 33 30 62 30 66 0 12 -17 6 -33 -12z"/>
<path d="M5805 2540 c3 -5 8 -10 11 -10 2 0 4 5 4 10 0 6 -5 10 -11 10 -5 0
-7 -4 -4 -10z"/>
<path d="M7076 2501 c-3 -5 1 -11 9 -14 9 -4 12 -1 8 9 -6 16 -10 17 -17 5z"/>
<path d="M5930 2490 c20 -13 43 -13 35 0 -3 6 -16 10 -28 10 -18 0 -19 -2 -7
-10z"/>
<path d="M6020 2486 c0 -2 14 -6 30 -8 17 -3 30 -1 30 4 0 4 -13 8 -30 8 -16
0 -30 -2 -30 -4z"/>
<path d="M4057 2419 c7 -7 15 -10 18 -7 3 3 -2 9 -12 12 -14 6 -15 5 -6 -5z"/>
<path d="M6420 2400 c8 -5 20 -10 25 -10 6 0 3 5 -5 10 -8 5 -19 10 -25 10 -5
0 -3 -5 5 -10z"/>
<path d="M6858 2403 c7 -3 16 -2 19 1 4 3 -2 6 -13 5 -11 0 -14 -3 -6 -6z"/>
<path d="M4135 2380 c-3 -5 1 -10 9 -10 8 0 18 5 21 10 3 6 -1 10 -9 10 -8 0
-18 -4 -21 -10z"/>
<path d="M6746 2382 c-3 -5 8 -9 25 -9 19 0 25 3 17 9 -17 10 -35 10 -42 0z"/>
<path d="M4198 2373 c7 -3 16 -2 19 1 4 3 -2 6 -13 5 -11 0 -14 -3 -6 -6z"/>
<path d="M6366 2345 c4 -8 10 -12 15 -9 11 6 2 24 -11 24 -5 0 -7 -7 -4 -15z"/>
<path d="M6970 2349 c-12 -8 -11 -9 5 -6 11 2 36 -5 55 -16 l35 -20 -20 20
c-26 27 -56 35 -75 22z"/>
<path d="M3810 2293 c-13 -32 -36 -82 -52 -110 -16 -29 -25 -53 -20 -53 21 0
111 164 112 203 0 34 -18 16 -40 -40z"/>
<path d="M6730 2306 c0 -2 7 -6 15 -10 8 -3 15 -1 15 4 0 6 -7 10 -15 10 -8 0
-15 -2 -15 -4z"/>
<path d="M6657 2263 c-10 -9 -9 -33 1 -33 4 0 8 9 8 20 0 23 0 22 -9 13z"/>
<path d="M6745 2254 c9 -9 18 -14 21 -11 9 9 -6 27 -22 27 -13 0 -13 -2 1 -16z"/>
<path d="M7015 2260 c3 -5 16 -10 28 -10 18 0 19 2 7 10 -20 13 -43 13 -35 0z"/>
<path d="M3019 2252 c-51 -16 -100 -102 -106 -187 -4 -50 -2 -64 15 -85 18
-23 23 -24 54 -13 18 7 45 9 59 7 20 -5 35 2 62 26 58 50 145 241 110 240 -5
-1 -24 -35 -43 -77 -36 -78 -73 -133 -92 -133 -12 0 -7 25 16 86 10 29 13 55
8 90 -7 47 -9 49 -39 49 -17 1 -37 -1 -44 -3z m16 -140 c-19 -75 -29 -92 -56
-92 -15 0 -19 7 -19 34 0 18 7 39 15 46 8 7 15 16 15 21 0 5 12 28 27 52 35
54 41 32 18 -61z"/>
<path d="M2710 2240 c0 -5 5 -10 10 -10 6 0 10 5 10 10 0 6 -4 10 -10 10 -5 0
-10 -4 -10 -10z"/>
<path d="M2837 2243 c-4 -3 -7 -11 -7 -17 0 -6 5 -5 12 2 6 6 9 14 7 17 -3 3
-9 2 -12 -2z"/>
<path d="M6722 2210 c21 -18 35 -36 32 -41 -3 -5 0 -9 5 -9 6 0 11 11 11 25 0
16 -6 25 -15 25 -9 0 -28 7 -43 16 -18 11 -15 6 10 -16z"/>
<path d="M7120 2226 c0 -2 8 -10 18 -17 15 -13 16 -12 3 4 -13 16 -21 21 -21
13z"/>
<path d="M7020 2211 c0 -15 28 -33 40 -26 7 5 5 12 -7 21 -21 16 -33 18 -33 5z"/>
<path d="M3869 2174 c-13 -14 -17 -23 -9 -19 13 5 46 45 37 45 -2 0 -14 -11
-28 -26z"/>
<path d="M7762 2169 c-19 -51 12 -180 39 -163 19 12 3 154 -20 177 -7 7 -13 3
-19 -14z"/>
<path d="M6685 2160 c-3 -5 -2 -10 4 -10 5 0 13 5 16 10 3 6 2 10 -4 10 -5 0
-13 -4 -16 -10z"/>
<path d="M7086 2094 c3 -19 2 -34 -5 -38 -7 -5 -11 2 -11 15 0 17 -3 20 -11
12 -19 -19 -6 -47 23 -50 35 -2 46 42 17 72 -19 20 -19 20 -13 -11z"/>
<path d="M2919 1933 c-13 -16 -12 -17 4 -4 16 13 21 21 13 21 -2 0 -10 -8 -17
-17z"/>
<path d="M4145 1939 c-4 -6 -5 -12 -2 -15 2 -3 7 2 10 11 7 17 1 20 -8 4z"/>
<path d="M3033 1898 c-23 -30 -24 -41 -2 -21 12 12 20 25 17 28 -3 3 -10 0
-15 -7z"/>
<path d="M2855 1845 c-21 -30 -41 -55 -44 -55 -3 0 -19 11 -36 24 -27 21 -28
25 -15 41 14 17 13 17 -15 3 -31 -17 -145 -130 -145 -145 1 -4 14 7 30 26 l29
34 28 -30 c16 -16 42 -37 60 -46 l31 -17 32 67 c17 37 41 81 54 98 28 37 38
55 33 55 -3 0 -22 -25 -42 -55z m-85 -44 l35 -29 -18 -37 c-19 -40 -19 -40
-79 14 -34 30 -34 37 -5 62 28 23 26 24 67 -10z"/>
<path d="M2785 1880 c-3 -6 1 -7 9 -4 18 7 21 14 7 14 -6 0 -13 -4 -16 -10z"/>
<path d="M1816 1856 c-36 -13 -72 -36 -92 -59 -32 -35 -34 -38 -19 -60 19 -30
93 -67 133 -67 19 0 35 -7 41 -17 8 -15 18 -7 75 51 63 64 77 86 57 86 -5 0
-33 20 -63 45 -30 25 -59 45 -64 44 -5 0 -35 -10 -68 -23z"/>
<path d="M2534 1848 c-40 -48 -86 -152 -87 -200 -3 -70 17 -60 24 12 7 71 35
142 75 190 14 16 24 30 21 30 -3 0 -18 -15 -33 -32z"/>
<path d="M4504 1776 c1 -24 4 -39 8 -33 9 14 7 77 -3 77 -3 0 -5 -20 -5 -44z"/>
<path d="M5079 1773 l-24 -26 27 19 c15 10 28 22 28 27 0 12 -5 8 -31 -20z"/>
<path d="M2396 1774 c-10 -25 1 -29 14 -5 6 12 7 21 1 21 -5 0 -12 -7 -15 -16z"/>
<path d="M2946 1749 c-22 -54 -15 -61 9 -9 10 22 16 43 13 46 -3 2 -13 -14
-22 -37z"/>
<path d="M5430 1774 l-25 -15 25 7 c28 7 35 12 29 18 -2 2 -15 -2 -29 -10z"/>
<path d="M2987 1773 c-11 -18 -19 -78 -9 -68 5 6 12 25 15 43 6 30 3 41 -6 25z"/>
<path d="M3881 1704 c0 -11 3 -14 6 -6 3 7 2 16 -1 19 -3 4 -6 -2 -5 -13z"/>
<path d="M4482 1695 c-7 -14 -12 -31 -12 -38 1 -7 7 3 16 22 17 39 13 54 -4
16z"/>
<path d="M4745 1709 c-4 -6 -5 -12 -2 -15 2 -3 7 2 10 11 7 17 1 20 -8 4z"/>
<path d="M2342 1638 c-11 -35 -15 -67 -11 -72 12 -14 21 -1 25 36 2 18 6 48 9
66 10 53 -3 37 -23 -30z"/>
<path d="M5467 1673 c7 -18 33 -17 33 1 0 8 -8 14 -19 13 -11 0 -17 -6 -14
-14z"/>
<path d="M2390 1626 c0 -34 4 -46 13 -43 14 5 11 66 -4 82 -5 5 -9 -10 -9 -39z"/>
<path d="M4032 1626 c-7 -16 -8 -26 -1 -26 12 0 22 25 17 41 -2 6 -9 0 -16
-15z"/>
<path d="M4201 1603 c-10 -26 -10 -27 4 -9 8 11 15 23 15 28 0 15 -7 8 -19
-19z"/>
<path d="M2250 1587 c0 -9 -10 -12 -30 -9 -33 5 -42 -16 -16 -37 23 -19 96 4
96 30 0 15 -5 19 -15 15 -8 -3 -15 -1 -15 4 0 6 -4 10 -10 10 -5 0 -10 -6 -10
-13z"/>
<path d="M11173 1570 c-17 -4 -59 -21 -92 -39 -33 -17 -68 -31 -78 -31 -20 -1
-80 -46 -72 -54 6 -6 112 46 117 57 2 4 7 5 10 3 4 -2 45 2 92 8 75 10 85 14
88 32 4 25 -19 33 -65 24z"/>
<path d="M4470 1551 c0 -10 19 -25 25 -20 1 2 -3 10 -11 17 -8 7 -14 8 -14 3z"/>
<path d="M8248 1475 l-26 -56 26 -16 c15 -9 43 -27 63 -40 41 -27 64 -29 73
-7 23 61 -38 175 -94 174 -8 0 -27 -25 -42 -55z"/>
<path d="M5831 1483 c-6 -21 -11 -46 -11 -55 0 -28 -19 -30 -26 -3 -3 14 -8
24 -11 21 -6 -6 28 -125 38 -131 4 -3 6 9 3 27 -3 18 1 64 10 103 16 76 14
100 -3 38z"/>
<path d="M8930 1467 c0 -2 6 -23 14 -48 8 -24 17 -57 21 -73 5 -23 8 -27 15
-16 5 8 7 26 4 40 -8 39 -36 100 -46 100 -4 0 -8 -1 -8 -3z"/>
<path d="M3877 1439 c7 -7 15 -10 18 -7 3 3 -2 9 -12 12 -14 6 -15 5 -6 -5z"/>
<path d="M9573 1408 c-22 -23 -47 -77 -39 -85 7 -7 55 9 67 23 14 18 17 76 3
81 -5 2 -20 -7 -31 -19z"/>
<path d="M2910 1377 c0 -4 12 -30 26 -58 28 -56 44 -61 21 -8 -16 36 -46 79
-47 66z"/>
<path d="M3030 1374 c0 -8 32 -33 43 -34 5 0 5 4 2 10 -8 13 -45 33 -45 24z"/>
<path d="M2785 1320 c14 -27 27 -50 29 -50 2 0 -5 23 -17 50 -11 28 -25 50
-29 50 -5 0 3 -22 17 -50z"/>
<path d="M2520 1321 c-27 -5 -13 -8 56 -12 69 -4 99 -10 128 -27 47 -28 57
-28 22 -1 -51 40 -127 55 -206 40z"/>
<path d="M4540 1282 c6 -13 14 -21 18 -18 3 4 -2 14 -12 24 -18 16 -18 16 -6
-6z"/>
<path d="M6255 1246 c24 -16 65 -30 65 -21 0 6 -63 35 -77 35 -4 0 1 -6 12
-14z"/>
</g>
</svg>
